<svg id="レイヤー_1" data-name="レイヤー 1" xmlns="http://www.w3.org/2000/svg" viewBox="0 0 54 48"><defs><style>.cls-1{fill:#fff;}</style></defs><title>ico_cart_sp</title><path class="cls-1" d="M41,29.72a2.3,2.3,0,0,0,2-1.32l8.23-17.73a2.28,2.28,0,0,0-1.1-3,2.31,2.31,0,0,0-.93-.22H13.76l-.65-4A2.3,2.3,0,0,0,10.85,1.5H2.78a2.29,2.29,0,0,0,0,4.58H8.91L12.4,27.4l-1.68,8.7a2.3,2.3,0,0,0,2.22,2.83h1.31a3.29,3.29,0,1,0,1.19,0H40.25a3.29,3.29,0,1,0,1.19,0h1.78a2.29,2.29,0,0,0,0-4.58H15.81l.83-4.63ZM45.62,12,39.51,25.14H16.67L14.51,12Z"/></svg>