<svg xmlns="http://www.w3.org/2000/svg" width="62.813" height="15.062" viewBox="0 0 62.813 15.062">
  <defs>
    <style>
      .cls-1 {
        fill: #fff;
        fill-rule: evenodd;
      }
    </style>
  </defs>
  <path id="購入する" class="cls-1" d="M2.629,2.744H4.021V3.993H2.629V2.744Zm0,2.817H4.021V6.826H2.629V5.561Zm0,2.833H4.021V9.675H2.629V8.395ZM1.78,11.5h3.3L3.749,12a14.242,14.242,0,0,1,.864,2.769l1.7-.592A15.153,15.153,0,0,0,5.286,11.5H5.942V0.9H0.772V11.5H1.524A11.771,11.771,0,0,1,.18,14.8l1.585,0.656A13.085,13.085,0,0,0,3.189,12ZM9.848,3.481V2.936H11.64V3.481H9.848Zm0,1.969V4.873H11.64V5.449H9.848ZM11.7,9.483V8.907h0.96V9.483H11.7Zm-2.865,0V8.907H9.768V9.483H8.839ZM11.7,11.436V10.812h0.96v0.624H11.7Zm-2.865,0V10.812H9.768v0.624H8.839Zm-2.673,0V13h0.7v2.449H8.839V13h3.826v0.576a0.2,0.2,0,0,1-.208.24c-0.144,0-.56,0-0.864-0.016l0.3,1.633a9.169,9.169,0,0,0,1.825-.064,1.2,1.2,0,0,0,.944-1.457V13h0.656V11.436H14.666v-4H11.7V6.842h3.553V5.449H13.593V4.873h1.168V3.481H13.593V2.936h1.5V1.5h-1.5V0.471H11.64V1.5H9.848V0.471H7.927V1.5H6.342V2.936H7.927V3.481H6.678V4.873H7.927V5.449H6.214V6.842H9.768V7.434H6.87v4h-0.7Zm17.392-6.4c-0.416,2.257-1.312,6.579-5.938,8.611,0.544,0.608,1.04,1.185,1.553,1.761a12.179,12.179,0,0,0,5.954-7.587,12.408,12.408,0,0,0,5.73,7.6L32.6,13.581c-4.082-1.889-5.986-5.762-6.387-12.5H20.693V3.16h3.441c0.1,0.656.192,1.313,0.32,1.921ZM41.927,8.459V8.683A1.307,1.307,0,0,1,40.615,10a1.271,1.271,0,0,1-1.28-1.313,1.31,1.31,0,0,1,1.216-1.377A1.241,1.241,0,0,1,41.927,8.459ZM34.948,2.7V4.681H41.9l0.016,1.056a4.507,4.507,0,0,0-1.425-.208,3.067,3.067,0,0,0-3.265,3.2,2.871,2.871,0,0,0,3.105,3.057,4.934,4.934,0,0,0,1.2-.144c-0.528.928-1.6,1.537-3.826,1.889l0.864,2c4.738-1.056,5.682-3.377,5.682-6.515a3.757,3.757,0,0,0-.112-0.96V4.681H48.17V2.7H44.136V0.936H41.8c0.016,0.512.032,1.12,0.048,1.761h-6.9Zm23.139,10.34a6.7,6.7,0,0,1-.816.032c-1.36,0-1.921-.336-1.921-0.88,0-.48.5-0.8,1.281-0.8C57.5,11.388,57.959,11.98,58.087,13.037ZM52.053,1.976l0.128,2.1c1.729-.08,4.13-0.208,5.41-0.336a65.546,65.546,0,0,1-7.219,6.211l1.441,1.665a15.487,15.487,0,0,1,4.626-3.2,7,7,0,0,1,1.969-.32,2.452,2.452,0,0,1,2.545,2.449,2.135,2.135,0,0,1-1.056,2,3.086,3.086,0,0,0-3.281-2.865c-1.9,0-3.2,1.137-3.2,2.545,0,1.617,1.424,2.705,4.066,2.705,3.794,0,5.682-1.745,5.682-4.466A4.007,4.007,0,0,0,59.032,6.3a5,5,0,0,0-1.489.224c1.072-1.024,2.849-2.545,4.05-3.505L60.552,1.48A83.5,83.5,0,0,1,52.053,1.976Z" transform="translate(-0.188 -0.469)"/>
</svg>
